<?xml version="1.0" encoding="utf-8"?>
<!-- Generator: Adobe Illustrator 16.0.0, SVG Export Plug-In . SVG Version: 6.00 Build 0)  -->
<!DOCTYPE svg PUBLIC "-//W3C//DTD SVG 1.1//EN" "http://www.w3.org/Graphics/SVG/1.1/DTD/svg11.dtd">
<svg version="1.1" id="Calque_1" xmlns="http://www.w3.org/2000/svg" xmlns:xlink="http://www.w3.org/1999/xlink" x="0px" y="0px"
	 width="260px" height="260px" viewBox="0 0 260 260" enable-background="new 0 0 260 260" xml:space="preserve">
<g>
	<path d="M130,14.22c30.7,0,59.57,12.03,81.29,33.88C233.029,69.97,245,99.06,245,130c0,30.939-11.971,60.029-33.71,81.9
		c-21.72,21.85-50.58,33.879-81.29,33.879c-30.7,0-59.57-12.029-81.29-33.879C26.97,190.029,15,160.939,15,130
		c0-30.94,11.97-60.03,33.71-81.9C70.43,26.25,99.3,14.22,130,14.22 M130-0.78C58.2-0.78,0,57.77,0,130
		c0,72.23,58.2,130.779,130,130.779S260,202.23,260,130C260,57.77,201.8-0.78,130-0.78L130-0.78z"/>
</g>
<g>
	<path fill="#0096FF" d="M96.83,72.51c5.18-1.58,8.35-0.86,12.1,3.02l8.64,9.07c3.02,3.02,5.33,3.17,8.5,0.58
		c9.071-7.49,19.87-13.68,29.09-13.68c10.22,0,14.83,7.49,14.83,15.98c0,5.47-1.87,11.23-5.33,19.87L135,181.08
		c-2.3,5.62-2.74,9.79-0.29,13.25c4.61,6.189,4.75,7.199,1.87,14.26l-1.01,2.74c-1.87,4.46-5.041,5.76-9.5,3.74
		c-18.43-8.35-20.74-23.62-14.98-38.16l24.051-59.47c3.6-9.36,6.619-15.98,6.619-19.15c0-2.02-1.58-3.17-3.17-3.17
		c-4.46,0-14.98,7.63-23.18,15.41c-2.45,2.3-4.61,5.62-5.9,8.64l-22.9,57.311c-2.02,4.899-4.75,6.77-10.08,6.77h-10.8
		c-4.75,0-6.34-2.45-4.61-6.77l30.82-76.75c1.3-3.02-0.14-4.61-3.31-3.6c-20.88,6.19-36,10.22-36,19.58c0,3.31,1.73,5.18,3.89,6.19
		c5.18,2.45,5.76,3.46,5.76,9.22v5.899c0,4.75-2.74,6.91-7.34,6.19c-14.4-2.45-23.9-12.53-23.76-26.64
		C31.17,88.63,63.14,83.45,96.83,72.51z"/>
	<path fill="#0096FF" d="M212.029,140.9c3.021-5.18,11.521,1.149,8.641,6.189c-10.8,19.15-25.92,36.141-43.061,36.141
		c-13.539,0-23.469-11.23-12.959-37.291l24.619-61.06c2.021-4.9,4.75-6.77,10.08-6.77h10.801c4.75,0,6.34,2.45,4.609,6.77
		l-25.92,64.37c-6.619,16.561-4.18,18.29-1.869,18.29C192.3,167.54,201.66,159.05,212.029,140.9z"/>
</g>
</svg>
